<?xml version="1.0" encoding="UTF-8"?>
<svg width="577px" height="280px" viewBox="0 0 577 280" version="1.1" xmlns="http://www.w3.org/2000/svg" xmlns:xlink="http://www.w3.org/1999/xlink">
    <!-- Generator: Sketch 61.2 (89653) - https://sketch.com -->
    <title>EZ-LOGO(黑-最短) </title>
    <desc>Created with Sketch.</desc>
    <g id="EZ-LOGO(黑-最短)-" stroke="none" stroke-width="1" fill="none" fill-rule="evenodd">
        <path d="M506.092853,175.387261 C514.609064,175.387261 521.511495,182.238659 521.511495,190.693631 C521.511495,199.146016 514.609064,206 506.092853,206 C497.575773,206 490.673343,199.146016 490.673343,190.693631 C490.673343,182.238659 497.575773,175.387261 506.092853,175.387261 Z M277.319623,66.576252 L268.445565,92.7179515 L268.445565,200.17032 L254.041399,200.17032 L254.041399,109.905502 L244,109.905502 L244,96.1837397 L250.40301,96.1837397 C252.051533,96.1837397 253.313548,94.5474049 254.18558,91.273873 L254.18558,91.273873 L261.60654,66.576252 L277.319623,66.576252 Z M468.072247,151.644025 L468.072247,157.99797 L525.836567,157.99797 L525.836567,159.540332 C525.463087,162.631953 523.31688,169.129013 512.094242,171.284354 L512.094242,171.284354 L468.072247,171.284354 L468.072247,200.170234 L451.921411,200.170234 L451.921411,171.284354 L408.042728,171.284354 C394.081527,168.60311 394.167514,159.198926 394.236999,157.99797 L394.236999,157.99797 L451.921411,157.99797 L451.921411,151.644025 L468.072247,151.644025 Z M320.241849,167.818652 L320.241849,186.30458 C320.241849,187.844356 321.261536,188.61683 323.299173,188.61683 L323.299173,188.61683 L348.906869,188.61683 L348.906869,199.015057 L314.569297,199.015057 C309.039188,199.015057 306.274567,196.895064 306.274567,192.66025 L306.274567,192.66025 L306.274567,167.818652 L320.241849,167.818652 Z M299.29084,168.974173 L293.470633,190.782776 C292.014929,195.787477 288.328769,198.291983 282.413889,198.291983 L282.413889,198.291983 L273.246259,198.291983 L273.246259,187.461826 L277.902599,187.461826 C279.162008,187.461826 280.179958,186.400536 280.958186,184.283129 L280.958186,184.283129 L285.468608,168.974173 L299.29084,168.974173 Z M366.949251,167.096613 L371.023657,182.695246 C371.410165,184.619535 372.186656,185.584266 373.351392,185.584266 L373.351392,185.584266 L378.007732,185.584266 L378.007732,197.137755 L368.11225,197.137755 C363.552321,197.137755 360.594012,194.729808 359.237324,189.915639 L359.237324,189.915639 L352.981101,167.096613 L366.949251,167.096613 Z M441.444082,176.48433 L430.970141,191.938124 C428.835226,195.403051 425.149065,197.137669 419.910792,197.137669 L419.910792,197.137669 L394.157178,197.137669 L394.157178,185.584179 L412.781668,185.584179 C415.011256,185.584179 416.612877,184.908264 417.583057,183.561607 L417.583057,183.561607 L422.82133,176.48433 L441.444082,176.48433 Z M337.922129,169.310234 L337.922129,172.632908 C337.922129,173.885592 338.744653,174.508055 340.394914,174.508055 L340.394914,174.508055 L346.797055,174.508055 L346.797055,183.175112 L333.992773,183.175112 C329.722941,183.175112 327.590631,181.442217 327.590631,177.975567 L327.590631,177.975567 L327.590631,169.310234 L337.922129,169.310234 Z M371.023483,116.259189 L371.023483,153.809539 C371.023483,160.070374 367.335586,163.198205 359.965002,163.198205 L359.965002,163.198205 L281.248458,163.198205 L281.248458,116.259189 L371.023483,116.259189 Z M355.745547,144.132058 L296.527262,144.132058 L296.527262,152.220622 L352.980927,152.220622 C354.823139,152.220622 355.745547,151.018804 355.745547,148.610857 L355.745547,148.610857 L355.745547,144.132058 Z M427.47628,67.1536247 L423.403611,77.1207835 L460.505804,77.1207835 L462.252474,67.1536247 L478.693409,67.1536247 L476.802558,77.1207835 L526.418935,77.1207835 L526.418935,87.3741715 L475.782871,87.3741715 L475.782871,97.1956292 L523.508397,97.1956292 L523.508397,107.736971 L475.782871,107.736971 L475.782871,116.83682 L523.508397,116.83682 L523.508397,127.380748 L475.782871,127.380748 L475.782871,136.478874 L527,136.478874 L527,147.455594 L419.182419,147.455594 L419.182419,151.643853 L403.615254,151.643853 L403.615254,98.350892 L393.575592,98.350892 L393.575592,84.0514979 L401.287518,84.0514979 C403.325156,84.0514979 404.778253,82.705703 405.652023,80.0089404 L405.652023,80.0089404 L410.599329,67.1536247 L427.47628,67.1536247 Z M460.069788,127.379886 L419.183288,127.379886 L419.183288,136.478874 L460.069788,136.478874 L460.069788,127.379886 Z M355.745547,127.380748 L296.526393,127.380748 L296.526393,134.74598 L355.745547,134.74598 L355.745547,127.380748 Z M460.069788,107.736971 L419.182419,107.736971 L419.182419,116.83682 L460.069788,116.83682 L460.069788,107.736971 Z M306.275175,87.3744301 L309.620861,98.3502885 L344.977252,98.3502885 L349.343493,87.3744301 L364.621429,87.3744301 L360.255188,98.3502885 L378.007645,98.3502885 L378.007645,109.905502 L276.01114,109.905502 L276.01114,98.3502885 L294.926596,98.3502885 L291.871009,87.3744301 L306.275175,87.3744301 Z M460.069788,87.3741715 L419.183288,87.3741715 L419.183288,97.1956292 L460.069788,97.1956292 L460.069788,87.3741715 Z M334.356177,66 L334.356177,72.9324387 L373.836482,72.9324387 C373.829533,73.1643534 373.468213,81.7124356 363.106316,84.0514117 L363.106316,84.0514117 L289.721849,84.0514117 C281.055377,82.0943621 279.386009,75.7947315 279.06638,73.6480119 L279.06638,73.6480119 L279.06638,72.9324387 L318.060292,72.9324387 L318.060292,66 L334.356177,66 Z" id="億集創見" fill="#000000"></path>
        <path d="M129.869133,50 L130.317414,50.0085087 C132.558203,50.0830499 134.786227,50.6375721 136.844319,51.6727885 L136.844319,51.6727885 L204.315915,85.5889423 L204.626837,85.7492808 C209.770754,88.4745515 213,93.8336312 213,99.6834615 L213,99.6834615 L213,175.631346 L212.995879,175.992926 C212.869685,181.52747 209.85286,186.603429 205.033809,189.344231 L205.033809,189.344231 L137.150378,227.942981 L136.725981,228.17605 C134.448325,229.381762 131.947944,229.990226 129.446027,230 L129.446027,230 L129.321176,230 L128.855656,229.991259 C126.373546,229.907802 123.906526,229.234898 121.671447,227.973269 L121.671447,227.973269 L58.0156117,192.058077 L57.7086596,191.880407 C52.9385455,189.047284 50,183.894832 50,178.319231 L50,178.319231 L50,98.1067308 L50.0038506,97.7570546 C50.1320306,91.9394194 53.4516287,86.6510577 58.6546064,84.0260577 L58.6546064,84.0260577 L122.726612,51.6805769 L123.141454,51.4791422 C125.226674,50.5040696 127.473445,50.0105469 129.721739,50 L129.721739,50 L129.869133,50 Z M201.977565,110.605913 C202.039897,107.705144 198.961105,105.81774 196.425068,107.204087 C178.029477,117.263317 119.695419,149.269567 90.7759239,166.411106 C88.1037644,167.954087 85.4324718,169.533413 82.7793867,171.11101 C79.6997271,172.943029 79.8367165,177.466394 83.0221527,179.107163 L83.0221527,179.107163 L90.7759239,183.100913 L110.141711,191.945144 C114.028568,193.726106 116.551599,197.594375 116.626163,201.887548 L116.626163,201.887548 L116.757084,209.467452 C117.612834,217.322548 123.861456,217.829663 127.411041,218.721875 C128.424589,218.94774 129.142482,217.779471 128.506089,216.953894 C126.984466,214.977356 126.100105,212.40976 125.992594,209.504663 L125.992594,209.504663 L125.988259,209.39476 L124.975578,167.291202 C124.774429,161.304471 128.217371,154.803702 133.181068,151.808606 L133.181068,151.808606 L133.494062,151.629471 L198.522392,116.29149 C200.606711,115.157837 201.926318,112.987452 201.977565,110.605913 Z M202.595658,131.350913 C202.595658,127.402163 198.414014,124.910721 195.020493,126.839663 L195.020493,126.839663 L140.475318,158.292067 C137.257802,160.120625 135.266254,163.571779 135.266254,167.316298 L135.266254,167.316298 L136.608403,206.28976 C136.608403,210.803606 141.390025,213.650721 145.267344,211.447452 L145.267344,211.447452 L198.874403,180.981587 C201.172876,179.675721 202.595658,177.21024 202.595658,174.535337 L202.595658,174.535337 Z M152.136754,173.438029 C152.354376,173.315144 153.014179,172.939567 153.621094,173.238125 C153.874264,173.36274 154.297371,173.689856 154.302642,174.486875 C154.306041,174.931683 154.179456,175.364375 153.927153,175.771106 C153.68352,176.16226 153.32544,176.494567 152.860716,176.75851 L152.860716,176.75851 L151.334759,177.625625 C151.091993,177.763221 150.941998,178.024567 150.943732,178.308413 L150.943732,178.308413 L150.995754,186.247452 C151.000956,186.880913 150.875238,187.439952 150.623802,187.904663 C150.366296,188.384087 150.019488,188.748413 149.592913,188.990721 C149.277318,189.170721 148.999004,189.233894 148.765775,189.233894 C148.444977,189.233894 148.207413,189.115337 148.063488,189.014952 C147.452238,188.590048 147.447036,187.731587 147.445302,187.449471 L147.445302,187.449471 L147.395881,179.864375 L146.174248,180.558413 C145.959227,180.680433 145.30636,181.051683 144.702046,180.756587 C144.451477,180.634567 144.029238,180.310913 144.023101,179.513029 C144.019701,179.052644 144.148887,178.613894 144.405525,178.205433 C144.650892,177.81774 145.002903,177.492356 145.451153,177.237933 L145.451153,177.237933 Z M163.334334,167.074856 C163.539818,166.958029 164.168408,166.59976 164.756248,166.891394 C165.001615,167.014279 165.408248,167.33274 165.414318,168.09601 C165.416052,168.524375 165.299871,168.937163 165.064908,169.321394 C164.839482,169.694375 164.49961,170.011106 164.056562,170.262933 L164.056562,170.262933 L160.087339,172.518125 C159.843706,172.656587 159.693711,172.917933 159.695445,173.200913 L159.695445,173.200913 L159.701514,174.042067 L162.990993,172.172837 C163.192142,172.05774 163.804259,171.711587 164.384296,171.998029 C164.626195,172.118317 165.030227,172.431587 165.035429,173.190529 C165.03803,173.602452 164.926185,174.00399 164.70336,174.383029 C164.483137,174.756875 164.151068,175.071875 163.712355,175.32024 L163.712355,175.32024 L160.118552,177.362548 C159.875786,177.50101 159.725791,177.763221 159.727525,178.045337 C159.73186,178.636394 160.357849,179.006779 160.865924,178.718606 L160.865924,178.718606 L163.564094,177.185144 C164.114653,176.871875 164.593248,176.813894 164.989477,177.012067 C165.234844,177.134087 165.645812,177.456875 165.651088,178.242644 C165.654482,178.67101 165.534834,179.086394 165.29727,179.479279 C165.064908,179.862644 164.725903,180.182837 164.28719,180.431202 L164.28719,180.431202 L158.570052,183.679856 C158.38711,183.784567 157.93886,184.03899 157.45853,184.03899 C157.255647,184.03899 157.047562,183.99399 156.850748,183.874567 C156.197014,183.473894 156.191812,182.56351 156.189211,182.263221 L156.189211,182.263221 L156.129299,173.122163 C156.126786,172.692067 156.182275,172.295721 156.294121,171.946106 C156.41377,171.571394 156.607115,171.235625 156.867222,170.946587 C157.109121,170.678317 157.416046,170.43774 157.780195,170.230913 L157.780195,170.230913 Z M175.145212,160.740679 L175.36252,160.741106 C176.217403,160.767067 176.898014,161.044856 177.387014,161.568413 C177.870812,162.08851 178.117046,162.708125 178.122248,163.413413 C178.124849,163.821875 178.010403,164.243317 177.782376,164.66476 C177.54828,165.098317 177.246557,165.422837 176.885876,165.627933 C176.387339,165.910913 175.947759,165.952452 175.581876,165.754279 C175.329573,165.620144 175.096344,165.37351 174.852711,164.98149 C174.682775,164.706298 174.505903,164.546202 174.328163,164.503798 C174.244062,164.483894 173.989158,164.468317 173.474147,164.760817 C172.735445,165.180529 172.16061,165.83649 171.716695,166.765913 C171.260642,167.717837 171.034349,168.856683 171.042153,170.151298 C171.049956,171.188894 171.202552,171.734087 171.32827,172.008413 C171.513812,172.409087 171.699355,172.441106 171.767849,172.454087 C172.011482,172.499952 172.351355,172.399567 172.750185,172.172837 C173.258259,171.884663 173.692637,171.485721 174.044647,170.988125 C174.407062,170.474087 174.683642,169.855337 174.868318,169.145721 C174.96369,168.741587 175.090275,168.365144 175.242871,168.042356 C175.439685,167.62524 175.754413,167.292933 176.179254,167.050625 C176.81478,166.68976 177.302913,166.859375 177.536142,166.992644 C177.773706,167.125913 178.177738,167.469471 178.182996,168.24226 C178.185541,168.706971 178.097972,169.23399 177.915897,169.854471 C177.741626,170.446394 177.465046,171.09024 177.094828,171.766106 C176.721142,172.448029 176.236477,173.110048 175.654706,173.733125 C175.065998,174.36399 174.370647,174.910048 173.58686,175.354856 C172.992951,175.692356 172.438924,175.938125 171.93952,176.08524 C171.546759,176.202933 171.169605,176.261779 170.813259,176.261779 C170.678004,176.261779 170.545349,176.253125 170.41703,176.235817 C169.917626,176.168317 169.458105,175.968413 169.04627,175.642163 C168.689057,175.350529 168.389068,174.979279 168.148036,174.533606 C167.918275,174.109567 167.743137,173.615433 167.627823,173.063317 C167.517711,172.538029 167.459621,171.940913 167.456153,171.290144 C167.449216,170.248221 167.573201,169.228798 167.827238,168.258702 C168.080408,167.289471 168.450626,166.36351 168.929222,165.504183 C169.406951,164.644856 169.979185,163.86601 170.625982,163.19101 C171.279716,162.509087 171.989807,161.947452 172.737179,161.523413 C173.690036,160.981683 174.574397,160.712548 175.36252,160.741106 Z M188.665227,152.470625 C189.418669,152.043125 189.948419,152.264663 190.197254,152.434279 C190.812839,152.85226 190.818908,153.715913 190.819775,153.99976 L190.819775,153.99976 L190.883974,163.580433 C190.886536,164.208702 190.759951,164.76601 190.503312,165.239375 C190.240605,165.721394 189.888594,166.090048 189.458552,166.334952 C188.688637,166.773702 188.157153,166.524471 187.908318,166.335817 C187.520759,166.041587 187.330014,165.533606 187.325679,164.785048 L187.325679,164.785048 L187.315275,163.26024 C187.31094,162.669183 186.684951,162.299663 186.176876,162.587837 L186.176876,162.587837 L184.610169,163.478317 C184.365669,163.616779 184.216541,163.878125 184.218275,164.161106 L184.218275,164.161106 L184.239084,167.356106 C184.243419,167.984375 184.115099,168.542548 183.858461,169.015048 C183.596621,169.497067 183.245477,169.865721 182.814568,170.110625 C182.498972,170.290625 182.222392,170.353798 181.99003,170.353798 C181.654493,170.353798 181.41086,170.22226 181.264334,170.110625 C180.688631,169.675337 180.682562,168.836779 180.680828,168.560721 L180.680828,168.560721 L180.617463,158.981779 C180.614068,158.361298 180.734584,157.81351 180.974748,157.351394 C181.224451,156.871106 181.577328,156.49899 182.021243,156.246298 C182.773818,155.818798 183.302701,156.040337 183.552403,156.209952 C184.167988,156.629663 184.174057,157.491587 184.175791,157.776298 L184.175791,157.776298 L184.182727,158.694471 C184.185328,159.285529 184.812185,159.655913 185.320259,159.366875 L185.320259,159.366875 L186.887834,158.476394 C187.130599,158.337933 187.280594,158.076587 187.27886,157.793606 L187.27886,157.793606 L187.26152,155.20524 C187.258052,154.583894 187.381169,154.032644 187.62827,153.567067 C187.883174,153.085913 188.231716,152.71726 188.665227,152.470625 Z M65.2456154,117.147356 C62.2483229,115.552452 58.6701261,117.785144 58.6701261,121.250144 L58.6701261,121.250144 L58.6701261,160.31274 C58.6701261,163.86601 62.4139239,166.090048 65.4155516,164.319471 L65.4155516,164.319471 L92.3235569,148.449183 L100.184839,143.769183 C103.254961,141.94149 103.15352,137.355817 100.006232,135.672644 L100.006232,135.672644 L92.3235569,131.563798 Z M195.212105,158.866683 C195.90919,158.469471 196.434605,158.651202 196.686041,158.794856 C196.943546,158.942837 197.372722,159.31149 197.378827,160.13101 C197.381392,160.66149 197.241802,161.16601 196.960887,161.62726 C196.686908,162.07726 196.349637,162.419087 195.959477,162.640625 C195.634344,162.825817 195.345626,162.889856 195.101993,162.889856 C194.874834,162.889856 194.684956,162.833606 194.540163,162.766106 C194.200291,162.60601 193.797126,162.231298 193.791924,161.351202 C193.789323,160.883894 193.92111,160.407933 194.187286,159.936298 C194.453461,159.461202 194.797669,159.101202 195.212105,158.866683 Z M131.113222,60.1626442 C129.416461,59.3059135 127.420578,59.3050481 125.723818,60.1591827 L125.723818,60.1591827 L60.3339399,93.0853365 C58.1187005,94.2008173 58.1152324,97.3932212 60.3278707,98.5130288 L60.3278707,98.5130288 L125.033669,131.266106 C126.927243,132.224952 129.156355,132.239663 131.062935,131.311106 C134.390562,129.689375 137.286413,128.284856 139.817248,127.05601 C142.094913,125.949183 142.113121,122.682356 139.852796,121.540048 L139.852796,121.540048 L93.3917271,98.0638942 C91.7244452,97.2210096 91.6984346,94.8273558 93.345775,93.9472596 L93.345775,93.9472596 L100.761408,89.988125 C102.060206,89.2949519 103.611307,89.2785096 104.92311,89.9465865 L104.92311,89.9465865 L144.33703,109.975048 C145.634094,110.634471 147.160919,110.630144 148.451913,109.956875 C150.230174,109.030913 152.239062,107.992452 154.504589,106.843221 C156.73977,105.710433 156.73977,102.483413 154.504589,101.34976 L154.504589,101.34976 L120.545966,84.1424519 C118.870881,83.2935096 118.857876,80.8816827 120.525158,80.0154327 L120.525158,80.0154327 L128.017956,76.1220673 C129.305482,75.4522596 130.830573,75.4444712 132.125903,76.0987019 L132.125903,76.0987019 L183.007046,101.808413 C184.921429,102.775913 187.172216,102.77851 189.090068,101.817933 C191.254153,100.734471 193.534419,99.5990865 195.90919,98.4117788 C198.160844,97.2867788 198.168647,94.0450481 195.922195,92.9096635 L195.922195,92.9096635 Z" id="icon" fill="#000000"></path>
    </g>
</svg>